<?xml version="1.0"?>
<svg xmlns="http://www.w3.org/2000/svg" viewBox="0 0 24 24">
    <path d="M 6 2 C 4.897 2 4 2.897 4 4 L 4 8 C 2.895 8 2 8.895 2 10 L 2 15 C 2 16.104 2.895 17 4 17 L 4 20 C 4 21.103 4.897 22 6 22 L 18 22 C 19.103 22 20 21.103 20 20 L 20 4 C 20 2.897 19.103 2 18 2 L 6 2 z M 6 4 L 18 4 L 18 10 C 18 8.895 17.104 8 16 8 L 6 8 L 6 4 z M 9.78125 10 L 11.40625 10 C 11.65125 10 13.002 10.16725 13 11.65625 C 12.997 13.23125 11.64925 13.25 11.40625 13.25 L 10.75 13.25 L 10.75 15 L 9.78125 15 L 9.78125 10 z M 15.21875 10 C 16.82775 9.967 16.91225 11.17425 16.90625 11.40625 C 16.88625 12.08025 16.27525 12.446 16.15625 12.5 C 16.42825 12.601 16.97275 12.87825 16.96875 13.65625 C 16.95875 15.14525 15.4365 15.14 15.1875 15.125 C 13.7895 15.041 13.53125 13.9335 13.53125 13.6875 L 14.65625 13.6875 C 14.65625 13.7785 14.74175 14.3255 15.21875 14.3125 C 15.80475 14.2965 15.83775 13.897 15.84375 13.625 C 15.84975 13.363 15.6445 12.91525 15.1875 12.90625 L 14.65625 12.90625 L 14.65625 12.125 L 15.1875 12.125 C 15.7695 12.055 15.78125 11.6455 15.78125 11.4375 C 15.78125 11.3465 15.765 10.8045 15.25 10.8125 C 14.781 10.8205 14.71875 11.25675 14.71875 11.34375 L 13.59375 11.34375 C 13.59375 11.13875 13.73375 10.03 15.21875 10 z M 4 10.0625 L 5.46875 10.0625 L 6.5 13.65625 L 7.53125 10.0625 L 9 10.0625 L 9 15.0625 L 7.875 15.0625 L 7.96875 11.625 L 6.875 15.0625 L 6.125 15.0625 L 5 11.625 L 5.125 15.0625 L 4 15.0625 L 4 10.0625 z M 10.75 10.84375 L 10.75 12.40625 L 11.40625 12.40625 C 11.50825 12.40625 11.968 12.28625 12 11.65625 C 12.036 10.95925 11.50725 10.84375 11.40625 10.84375 L 10.75 10.84375 z M 18 15 L 18 20 L 6 20 L 6 17 L 16 17 C 17.104 17 18 16.104 18 15 z"/>
</svg>
