<?xml version="1.0" encoding="iso-8859-1"?>
<!-- Generator: Adobe Illustrator 21.0.2, SVG Export Plug-In . SVG Version: 6.00 Build 0)  -->
<svg xmlns="http://www.w3.org/2000/svg" xmlns:xlink="http://www.w3.org/1999/xlink" version="1.1" id="Layer_1" x="0px" y="0px" viewBox="0 0 40 40" style="enable-background:new 0 0 40 40;" xml:space="preserve">
<g>
	<path style="fill:#FFFFFF;" d="M2.5,36.5v-33h35V36c0,0.276-0.224,0.5-0.5,0.5H2.5z"/>
	<g>
		<path style="fill:#4788C7;" d="M37,4v32H3V4H37 M38,3H2v34h35c0.552,0,1-0.448,1-1V3L38,3z"/>
	</g>
</g>
<g>
	<rect x="3" y="4" style="fill:#98CCFD;" width="34" height="5"/>
</g>
<polygon style="fill:#FFFFFF;" points="38,20 37,20 37,36 19,36 19,37 38,37 "/>
<line style="fill:none;stroke:#4788C7;stroke-linecap:round;stroke-miterlimit:10;" x1="13.5" y1="16.5" x2="30.5" y2="16.5"/>
<line style="fill:none;stroke:#4788C7;stroke-linecap:round;stroke-miterlimit:10;" x1="9.5" y1="16.5" x2="9.5" y2="16.5"/>
<line style="fill:none;stroke:#4788C7;stroke-linecap:round;stroke-miterlimit:10;" x1="13.5" y1="20.5" x2="30.5" y2="20.5"/>
<line style="fill:none;stroke:#4788C7;stroke-linecap:round;stroke-miterlimit:10;" x1="9.5" y1="20.5" x2="9.5" y2="20.5"/>
<line style="fill:none;stroke:#4788C7;stroke-linecap:round;stroke-miterlimit:10;" x1="13.5" y1="24.5" x2="23.5" y2="24.5"/>
<line style="fill:none;stroke:#4788C7;stroke-linecap:round;stroke-miterlimit:10;" x1="9.5" y1="24.5" x2="9.5" y2="24.5"/>
<line style="fill:none;stroke:#4788C7;stroke-linecap:round;stroke-miterlimit:10;" x1="13.5" y1="28.5" x2="23.5" y2="28.5"/>
<line style="fill:none;stroke:#4788C7;stroke-linecap:round;stroke-miterlimit:10;" x1="9.5" y1="28.5" x2="9.5" y2="28.5"/>
<path style="fill:#4788C7;" d="M37.5,21L37.5,21c-0.275,0-0.5-0.225-0.5-0.5v-2c0-0.275,0.225-0.5,0.5-0.5l0,0  c0.275,0,0.5,0.225,0.5,0.5v2C38,20.775,37.775,21,37.5,21z"/>
<path style="fill:#4788C7;" d="M17.5,36h2c0.275,0,0.5,0.225,0.5,0.5l0,0c0,0.275-0.225,0.5-0.5,0.5h-2c-0.275,0-0.5-0.225-0.5-0.5  l0,0C17,36.225,17.225,36,17.5,36z"/>
<g>
	<path style="fill:#DFF0FE;" d="M26.5,39.5v-16h13v13.786c0,1.221-0.999,2.214-2.227,2.214H26.5z"/>
	<path style="fill:#4788C7;" d="M39,24v13.286C39,38.231,38.225,39,37.273,39H27V24H39 M40,23H26v17h11.273   C38.779,40,40,38.785,40,37.286V23L40,23z"/>
</g>
<g>
	<path style="fill:#98CCFD;" d="M24.75,39.5c-1.221,0-2.214-0.993-2.214-2.214V35.5H35.5v1.949c0,1.299,0.803,1.834,1.5,1.995V39.5   H24.75z"/>
	<g>
		<path style="fill:#4788C7;" d="M35,36v1.449c0,0.643,0.173,1.157,0.451,1.551H24.75c-0.945,0-1.714-0.769-1.714-1.714V36H35     M36,35H22.036v2.286c0,1.499,1.215,2.714,2.714,2.714H37.5v-1c0,0-0.006,0-0.018,0C37.313,39,36,38.952,36,37.449V35L36,35z"/>
	</g>
</g>
</svg>
