<?xml version="1.0"?>
<svg xmlns="http://www.w3.org/2000/svg" viewBox="0 0 26 26" enable-background="new 0 0 26 26">
    <path d="M 8 0 C 5.8 0 4 1.8 4 4 L 4 11 L 1 11 C 0.4 11 0 11.5 0 12 L 0 18 C 0 18.5 0.4 19 1 19 L 4 19 L 4 22 C 4 24.2 5.8 26 8 26 L 20 26 C 22.2 26 24 24.2 24 22 L 24 8 C 24 6.9 23.0125 5.8875 21.3125 4.1875 C 21.0125 3.9875 20.8 3.7 20.5 3.5 C 20.3 3.2 20.0125 2.9875 19.8125 2.6875 C 18.1125 0.9875 17.1 5.9211895e-16 16 0 L 8 0 z M 8 2 L 15.3125 2 C 16.0125 2.2 16 3.1 16 4 L 16 7 C 16 7.6 16.4 8 17 8 L 20 8 C 21 8 22 8 22 9 L 22 12 C 22 11.5 21.6 11 21 11 L 6 11 L 6 4 C 6 2.9 6.9 2 8 2 z M 14.40625 12.09375 L 15.6875 12.09375 C 15.7875 12.09375 15.8125 12.0875 15.8125 12.1875 L 16.5 14.5 C 16.6 15 16.80625 15.50625 16.90625 15.90625 C 17.00625 15.40625 17.1125 15 17.3125 14.5 L 18 12.1875 C 18 12.0875 18.09375 12.09375 18.09375 12.09375 L 19.40625 12.09375 C 19.40625 12.09375 19.5 12.0875 19.5 12.1875 L 19.5 12.3125 L 17.59375 17.6875 C 17.59375 17.7875 17.5 17.8125 17.5 17.8125 L 16.09375 17.8125 C 15.99375 17.8125 16 17.7875 16 17.6875 L 14.3125 12.3125 L 14.3125 12.1875 L 14.40625 12.09375 z M 2 12.1875 L 2.09375 12.1875 L 3.40625 12.1875 C 3.50625 12.1875 3.5 12.2125 3.5 12.3125 L 4 14.5 C 4.1 14.9 4.0875 15.2875 4.1875 15.6875 C 4.2875 15.2875 4.40625 14.9 4.40625 14.5 L 4.90625 12.3125 C 4.90625 12.2125 5 12.1875 5 12.1875 L 6.3125 12.1875 C 6.4125 12.1875 6.40625 12.2125 6.40625 12.3125 L 6.8125 14.59375 C 6.9125 14.89375 6.9 15.29375 7 15.59375 C 7 15.39375 7.09375 15.2 7.09375 15 L 7.1875 14.5 L 7.59375 12.3125 C 7.59375 12.2125 7.6875 12.1875 7.6875 12.1875 L 9 12.1875 L 9.09375 12.1875 L 9.09375 12.3125 L 7.6875 17.6875 C 7.6875 17.7875 7.69375 17.8125 7.59375 17.8125 L 6.3125 17.8125 C 6.2125 17.8125 6.1875 17.7875 6.1875 17.6875 L 5.6875 15.40625 C 5.5875 15.10625 5.6 14.8 5.5 14.5 C 5.4 14.8 5.4125 15.10625 5.3125 15.40625 L 4.8125 17.6875 C 4.8125 17.7875 4.6875 17.8125 4.6875 17.8125 L 3.40625 17.8125 C 3.30625 17.8125 3.3125 17.7875 3.3125 17.6875 L 2 12.3125 L 2 12.1875 z M 10.8125 12.1875 L 12.40625 12.1875 C 12.50625 12.1875 12.5 12.2125 12.5 12.3125 L 14.1875 17.6875 C 14.2875 17.6875 14.2875 17.7125 14.1875 17.8125 L 14.09375 17.90625 L 12.8125 17.90625 C 12.7125 17.90625 12.6875 17.9125 12.6875 17.8125 L 12.3125 16.5 L 11 16.5 L 10.59375 17.8125 C 10.59375 17.9125 10.5 17.90625 10.5 17.90625 L 9.1875 17.90625 C 9.1875 17.90625 9.09375 17.9125 9.09375 17.8125 L 9.09375 17.6875 L 10.6875 12.3125 C 10.6875 12.2125 10.8125 12.1875 10.8125 12.1875 z M 11.59375 13.6875 C 11.59375 13.8875 11.5 14.1125 11.5 14.3125 L 11.1875 15.3125 L 12.09375 15.3125 L 11.8125 14.3125 C 11.7125 14.1125 11.69375 13.8875 11.59375 13.6875 z M 22 18 L 22 22 C 22 23.1 21.1 24 20 24 L 8 24 C 6.9 24 6 23.1 6 22 L 6 19 L 21 19 C 21.6 19 22 18.5 22 18 z"/>
</svg>
